<svg width="73" height="73" viewBox="0 0 73 73" fill="none" xmlns="http://www.w3.org/2000/svg">
<path d="M31.9375 48.8507L20.5312 37.4422L23.7547 34.2188L31.9375 42.3993L49.2408 25.0938L52.4688 28.3217L31.9375 48.8507Z" fill="#14AE5C"/>
<path d="M36.5 4.5625C30.1834 4.5625 24.0086 6.4356 18.7565 9.94494C13.5044 13.4543 9.41089 18.4422 6.99361 24.278C4.57634 30.1139 3.94387 36.5354 5.17618 42.7307C6.4085 48.926 9.45025 54.6167 13.9168 59.0832C18.3833 63.5498 24.0741 66.5915 30.2693 67.8238C36.4646 69.0561 42.8862 68.4237 48.722 66.0064C54.5578 63.5891 59.5457 59.4956 63.0551 54.2435C66.5644 48.9914 68.4375 42.8166 68.4375 36.5C68.4375 28.0296 65.0727 19.9062 59.0832 13.9168C53.0938 7.92733 44.9704 4.5625 36.5 4.5625ZM36.5 63.875C31.0858 63.875 25.7931 62.2695 21.2913 59.2615C16.7895 56.2535 13.2808 51.9781 11.2088 46.976C9.13686 41.9738 8.59475 36.4696 9.65102 31.1594C10.7073 25.8492 13.3145 20.9714 17.143 17.143C20.9714 13.3145 25.8492 10.7073 31.1594 9.651C36.4696 8.59473 41.9738 9.13685 46.976 11.2088C51.9781 13.2807 56.2535 16.7895 59.2615 21.2913C62.2695 25.7931 63.875 31.0857 63.875 36.5C63.875 43.7603 60.9909 50.7232 55.8571 55.857C50.7233 60.9909 43.7603 63.875 36.5 63.875Z" fill="#14AE5C"/>
</svg>
