<svg width="22" height="22" viewBox="0 0 22 22" fill="none" xmlns="http://www.w3.org/2000/svg">
<path d="M5.38263 1C4.00763 1 2.00763 2.5 1.50763 3.5C0.792629 4.93 0.910629 5.49 1.38263 7C2.00763 9 3.83963 12.545 6.38263 15C10.0076 18.5 13.3826 20 14.8826 20.5C16.3826 21 18.0076 20.5 19.0076 19.5C20.0076 18.5 21.0076 17.5 19.8826 16C19.0856 14.937 17.9236 13.708 16.5076 13C15.2196 12.356 14.4516 12.59 14.0076 13.5C13.7616 14.003 13.6856 14.966 13.5076 15.5C13.2826 16.174 12.3826 16 11.3826 15.5C10.4256 15.021 8.00763 13 6.00763 10C4.76763 8.141 6.74963 8.13 8.00763 7.5C9.00763 7 9.31763 5.85 8.50763 4.5C7.00763 2 6.50763 1 5.38263 1Z" stroke="white" stroke-width="2"/>
</svg>
