<svg width="73" height="73" viewBox="0 0 73 73" fill="none" xmlns="http://www.w3.org/2000/svg">
<path d="M4.5625 36.5C4.5625 42.8166 6.4356 48.9914 9.94494 54.2435C13.4543 59.4956 18.4422 63.5891 24.278 66.0064C30.1139 68.4237 36.5354 69.0561 42.7307 67.8238C48.926 66.5915 54.6167 63.5498 59.0832 59.0832C63.5498 54.6167 66.5915 48.926 67.8238 42.7307C69.0561 36.5354 68.4237 30.1139 66.0064 24.278C63.5891 18.4422 59.4956 13.4543 54.2435 9.94494C48.9914 6.4356 42.8166 4.5625 36.5 4.5625C28.0296 4.5625 19.9062 7.92733 13.9168 13.9168C7.92733 19.9062 4.5625 28.0296 4.5625 36.5ZM57.3734 54.1797L18.8203 15.6266C24.0686 11.258 30.7602 9.0086 37.5817 9.31996C44.4032 9.63131 50.862 12.4809 55.6906 17.3094C60.5191 22.138 63.3687 28.5968 63.68 35.4183C63.9914 42.2398 61.742 48.9314 57.3734 54.1797ZM18.7975 57.3962C13.2731 52.7049 9.83448 46.0142 9.23578 38.7913C8.63708 31.5684 10.9271 24.4029 15.6038 18.8659L54.1341 57.3962C49.1934 61.571 42.9341 63.8614 36.4658 63.8614C29.9975 63.8614 23.7382 61.571 18.7975 57.3962Z" fill="#F24822"/>
</svg>
