<svg width="17" height="17" viewBox="0 0 17 17" fill="none" xmlns="http://www.w3.org/2000/svg">
<path d="M7.73964 12.5942V2.29451L4.96528 5.06887L4.12225 4.21394L8.335 0L12.5489 4.21394L11.7059 5.07006L8.93036 2.29451V12.5942H7.73964ZM1.92419 16.67C1.37567 16.67 0.91804 16.4866 0.5513 16.1199C0.18456 15.7531 0.000793809 15.2951 0 14.7458V11.8607H1.19071V14.7458C1.19071 14.9292 1.26692 15.0975 1.41933 15.2507C1.57174 15.4039 1.73963 15.4801 1.923 15.4793H14.747C14.9296 15.4793 15.0975 15.4031 15.2507 15.2507C15.4039 15.0983 15.4801 14.93 15.4793 14.7458V11.8607H16.67V14.7458C16.67 15.2943 16.4866 15.752 16.1199 16.1187C15.7531 16.4854 15.2951 16.6692 14.7458 16.67H1.92419Z" fill="white"/>
</svg>
